<svg width="32" height="32" viewBox="0 0 32 32" fill="none" xmlns="http://www.w3.org/2000/svg">
<path d="M16.7126 26.4875L26.8375 16.3625C29.325 13.8625 29.6875 9.775 27.3375 7.1625C26.7482 6.50414 26.0308 5.97285 25.2292 5.60111C24.4276 5.22936 23.5586 5.02496 22.6753 5.00039C21.792 4.97582 20.913 5.1316 20.092 5.45822C19.2709 5.78483 18.5251 6.27542 17.9001 6.9L16.0001 8.8125L14.3626 7.1625C11.8626 4.675 7.77505 4.3125 5.16255 6.6625C4.50419 7.25186 3.9729 7.96926 3.60115 8.77088C3.22941 9.57249 3.02501 10.4415 3.00044 11.3248C2.97587 12.208 3.13165 13.0871 3.45827 13.9081C3.78488 14.7291 4.27547 15.475 4.90005 16.1L15.2876 26.4875C15.4771 26.6753 15.7332 26.7806 16.0001 26.7806C16.2669 26.7806 16.523 26.6753 16.7126 26.4875V26.4875Z" stroke="#FF5559" stroke-width="2" stroke-linecap="round" stroke-linejoin="round"/>
</svg>
