<svg width="40" height="32" viewBox="0 0 40 32" fill="none" xmlns="http://www.w3.org/2000/svg">
<path d="M24.1227 7.61386H15.8553V24.3861H24.1227V7.61386Z" fill="#FF5F00"/>
<path d="M16.3803 16C16.379 14.3847 16.7032 12.7903 17.3284 11.3373C17.9536 9.88443 18.8635 8.61115 19.989 7.61388C18.5952 6.37703 16.9212 5.60786 15.1585 5.39426C13.3957 5.18067 11.6153 5.53128 10.0207 6.40602C8.42615 7.28076 7.08173 8.64434 6.14115 10.3409C5.20057 12.0375 4.70178 13.9985 4.70178 16C4.70178 18.0015 5.20057 19.9625 6.14115 21.6591C7.08173 23.3556 8.42615 24.7192 10.0207 25.594C11.6153 26.4687 13.3957 26.8193 15.1585 26.6057C16.9212 26.3921 18.5952 25.623 19.989 24.3861C18.8635 23.3888 17.9537 22.1155 17.3284 20.6626C16.7032 19.2097 16.379 17.6153 16.3803 16Z" fill="#EB001B"/>
<path d="M35.2758 16C35.2758 18.0014 34.7771 19.9625 33.8366 21.6591C32.896 23.3556 31.5517 24.7192 29.9571 25.5939C28.3626 26.4687 26.5822 26.8193 24.8195 26.6057C23.0567 26.3921 21.3828 25.623 19.989 24.3861C21.1136 23.3878 22.0227 22.1143 22.6478 20.6617C23.2729 19.209 23.5977 17.615 23.5977 16C23.5977 14.385 23.2729 12.791 22.6478 11.3383C22.0227 9.88564 21.1136 8.61215 19.989 7.61387C21.3828 6.37703 23.0567 5.60785 24.8195 5.39426C26.5822 5.18067 28.3626 5.53129 29.9571 6.40604C31.5517 7.28079 32.896 8.64437 33.8366 10.3409C34.7771 12.0375 35.2758 13.9986 35.2758 16Z" fill="#F79E1B"/>
<path d="M34.3743 22.6097V22.2663H34.4969V22.1963H34.1846V22.2663H34.3073V22.6097H34.3743ZM34.9807 22.6097V22.1956H34.8849L34.7748 22.4804L34.6647 22.1956H34.5689V22.6097H34.6365V22.2974L34.7397 22.5666H34.8098L34.9131 22.2967V22.6097H34.9807Z" fill="#F79E1B"/>
</svg>
